PathFileType	4	(X/Y/Z)	C:\Users\Basilio\Documents\Thesis Gigler\squatting_fais\c3dfiles\047\SLS_pre_back1\markers_experimental.trc
DataRate	CameraRate	NumFrames	NumMarkers	Units	OrigDataRate	OrigDataStartFrame	OrigNumFrames
200.000000	200.000000	4	60	mm	200.000000	472	1260
Frame#	Time	FHD			LBHD			RBHD			C7			T10			CLAV			LSHO			LUUPA			LMUPA			LDUPA			LLEP			LMEP			LRAD			LUL			LRFIN			RSHO			RUPA1			RMUPA			RDUPA			RLEP			RMEP			RUL			RUFIN			LASI			RASI			USACR			LSACR			RSACR			LTHI1			LTHI2			LTHI3			LTHI4			LLFC			LMFC			LTIB1			LTIB2			LTIB3			LTIB4			LLMAL			LMMAL			LMT1			LMT2			LMT5			RTHI			RTHI2			RTHI3			RTHI4			RLFC			RMFC			RTIB1			RTIB2			RTIB3			RTIB4			RLMAL			RHEE			RMT1			RMT2			RMT5			RMMAL			*59			
		X1	Y1	Z1	X2	Y2	Z2	X3	Y3	Z3	X4	Y4	Z4	X5	Y5	Z5	X6	Y6	Z6	X7	Y7	Z7	X8	Y8	Z8	X9	Y9	Z9	X10	Y10	Z10	X11	Y11	Z11	X12	Y12	Z12	X13	Y13	Z13	X14	Y14	Z14	X15	Y15	Z15	X16	Y16	Z16	X17	Y17	Z17	X18	Y18	Z18	X19	Y19	Z19	X20	Y20	Z20	X21	Y21	Z21	X22	Y22	Z22	X23	Y23	Z23	X24	Y24	Z24	X25	Y25	Z25	X26	Y26	Z26	X27	Y27	Z27	X28	Y28	Z28	X29	Y29	Z29	X30	Y30	Z30	X31	Y31	Z31	X32	Y32	Z32	X33	Y33	Z33	X34	Y34	Z34	X35	Y35	Z35	X36	Y36	Z36	X37	Y37	Z37	X38	Y38	Z38	X39	Y39	Z39	X40	Y40	Z40	X41	Y41	Z41	X42	Y42	Z42	X43	Y43	Z43	X44	Y44	Z44	X45	Y45	Z45	X46	Y46	Z46	X47	Y47	Z47	X48	Y48	Z48	X49	Y49	Z49	X50	Y50	Z50	X51	Y51	Z51	X52	Y52	Z52	X53	Y53	Z53	X54	Y54	Z54	X55	Y55	Z55	X56	Y56	Z56	X57	Y57	Z57	X58	Y58	Z58	X59	Y59	Z59	X60	Y60	Z60	

473	2.36	10.68920421600342	1540.3857421875	-1118.69580078125	-169.3702392578125	1532.500732421875	-1145.32763671875	-146.9841613769532	1533.804809570313	-998.035339355469	-227.1910705566407	1380.77978515625	-1066.629028320313	-371.7958679199219	1113.679443359375	-1016.143737792969	-106.8676986694336	1273.809692382813	-1095.20458984375	-173.1879425048828	1310.812133789063	-1246.582153320313	-147.2211456298828	1146.460571289063	-1341.0380859375	-98.36286926269534	1161.214111328125	-1341.068969726563	-94.20471954345705	1101.966796875	-1351.519409179688	-27.76862525939942	1071.406127929688	-1358.017822265625	-50.03010940551759	1028.853515625	-1279.707397460938	166.367172241211	1145.5859375	-1205.850952148438	188.5846557617188	1073.052978515625	-1200.652587890625	259.7583007812501	1136.847045898438	-1200.145629882813	-111.3460388183594	1323.944946289063	-939.4337158203127	-39.17299270629884	1174.018798828125	-837.7542724609377	0.821432948112488	1184.491333007813	-862.4000244140627	13.41318416595459	1128.317260742188	-844.8883056640627	80.28735351562501	1098.589721679688	-866.6072998046877	34.37904357910157	1038.800048828125	-913.878601074219	240.276351928711	1084.650756835938	-1074.291015625	230.5490875244141	1165.70703125	-1119.002319335938	-290.4395751953126	846.7002563476565	-1098.957641601563	-278.9145202636719	859.9500732421877	-872.5985107421877	-433.4877014160157	985.3215942382815	-989.392517089844	-452.1798400878907	957.5119628906252	-1015.844787597656	-446.6798706054689	958.6534423828127	-957.1512451171877	-333.5584106445313	726.5006103515626	-1179.369018554688	-262.1554870605469	681.1877441406251	-1182.33935546875	-222.9075012207032	707.9242553710939	-1169.335815429688	-256.5959777832032	620.8229370117189	-1184.284301757813	-188.3910675048828	470.8943176269532	-1153.272094726563	-150.2060089111328	477.1256713867189	-1032.786254882813	-202.5979766845704	309.4708862304688	-1038.485595703125	-229.1204833984376	259.7701721191407	-1104.264404296875	-214.0902099609376	256.7019958496094	-1060.87255859375	-259.4299926757813	197.7370147705079	-1022.59033203125	-344.7532348632813	123.4413146972657	-1061.669555664063	-319.4536132812501	142.1762390136719	-974.7534179687502	-210.2617187500001	62.87752151489259	-990.6746826171877	-208.4801940917969	60.73955535888673	-1036.189819335938	-258.8058471679688	50.2295379638672	-1079.864013671875	-366.5174255371094	700.8060913085939	-772.253845214844	-324.9497070312501	648.7262573242189	-766.3612670898439	-295.0484313964844	649.2424316406251	-778.878601074219	-348.0093383789063	567.7396240234376	-759.3565063476564	-342.7966613769532	435.6172180175782	-772.4362792968752	-341.3627929687501	405.1002502441407	-902.0804443359377	-442.4259033203126	365.1582031250001	-778.5327758789065	-529.8515625000001	425.6021728515626	-746.3759155273439	-524.3508911132814	379.2628173828126	-752.5594482421876	-572.9716186523439	358.8114624023438	-781.153747558594	-727.9997558593751	412.3580017089845	-754.1159667968751	-749.3070068359376	460.8905639648439	-817.4876098632815	-801.510437011719	258.4352722167969	-803.7982177734377	-800.2363281250002	258.3703002929688	-758.1237792968751	-823.087585449219	319.0651550292969	-716.0447387695314	-713.6198730468751	369.8959960937501	-835.0678710937502	nan	nan	nan	
474	2.365	11.84570217132569	1538.988891601563	-1118.93017578125	-168.8036041259766	1531.107421875	-1145.530029296875	-146.4148864746094	1532.141357421875	-998.354919433594	-226.5572662353516	1379.332641601563	-1066.6572265625	-371.2480773925782	1112.504516601563	-1016.240295410156	-106.2209396362305	1271.96826171875	-1095.390258789063	-172.9595336914063	1309.156494140625	-1246.383056640625	-146.9532012939453	1144.870361328125	-1340.933959960938	-97.96730804443362	1159.39599609375	-1341.169067382813	-93.91934967041017	1100.139526367188	-1351.55712890625	-27.50953102111817	1069.49169921875	-1358.076782226563	-49.86822891235353	1026.901489257813	-1279.508422851563	166.4810638427735	1143.475341796875	-1205.809814453125	188.3475189208985	1071.121704101563	-1200.697509765625	260.2674865722657	1134.758911132813	-1200.282470703125	-110.7728652954102	1322.598999023438	-939.5513305664065	-38.71128845214844	1172.300170898438	-837.799255371094	1.492303729057312	1183.029174804688	-863.034362792969	14.19485092163086	1126.821655273438	-845.128845214844	80.7502899169922	1096.554321289063	-866.6390380859377	34.62490844726563	1036.884643554688	-913.918151855469	240.533676147461	1082.338989257813	-1074.302612304688	230.7560272216797	1163.470703125	-1118.855712890625	-290.6156921386719	845.671325683594	-1098.763916015625	-279.0716857910157	858.5524902343752	-872.6311645507815	-433.533905029297	984.390808105469	-989.248962402344	-452.2225952148439	956.3623657226565	-1015.764953613281	-446.5604858398439	958.0018310546877	-957.1118164062502	-333.7169494628907	725.7675170898439	-1179.23291015625	-261.8475036621094	680.5361938476564	-1182.247680664063	-223.0185089111329	707.5474853515626	-1169.215209960938	-256.3544311523438	620.3491210937501	-1184.23388671875	-187.9717254638672	470.6043701171876	-1153.325927734375	-149.6831512451172	476.9094543457032	-1032.776000976563	-202.3452148437501	309.2425537109376	-1038.30615234375	-224.7425689697266	261.2644958496094	-1105.68310546875	-213.9101257324219	256.6054992675782	-1060.954711914063	-259.3941955566407	197.6275177001954	-1022.532348632813	-344.6724243164063	123.4673690795899	-1061.6416015625	-319.4165039062501	142.2141876220703	-974.7302246093752	-210.1929473876954	62.87045669555665	-990.757507324219	-208.4933013916016	60.69716644287111	-1036.195678710938	-258.8001403808594	50.19347763061525	-1079.83349609375	-366.8347778320313	699.6962890625001	-772.1604003906252	-325.3918457031251	647.4770507812501	-766.3936157226564	-295.5922241210938	648.0749511718751	-778.8331298828127	-348.6752624511719	566.3605957031251	-759.3313598632814	-343.4142150878907	434.7110595703126	-772.5379638671877	-342.4325561523438	405.0592041015626	-901.9177856445315	-443.1423950195314	364.1629943847657	-778.3191528320315	-530.4244995117189	424.5649719238282	-746.4047241210939	-525.1231689453126	378.4163818359376	-752.5355834960939	-573.9505615234376	358.1425476074219	-780.7346191406252	-728.7124633789064	411.6893310546876	-753.9893188476564	-749.9150390625001	460.5500488281251	-817.500183105469	-802.7591552734377	257.3569335937501	-803.3760375976565	-800.6817626953127	257.9477539062501	-758.6751708984376	-824.1053466796877	318.4366149902344	-716.1567382812501	-714.4177856445314	369.0520629882813	-834.794860839844	nan	nan	nan	
475	2.37	12.3515272140503	1537.074462890625	-1118.855590820313	-167.7923126220703	1529.347900390625	-1145.712524414063	-145.2397003173828	1530.78662109375	-998.8123168945315	-225.981674194336	1377.86865234375	-1066.76806640625	-371.0859680175782	1111.600463867188	-1016.045349121094	-105.8571319580078	1270.502685546875	-1095.421264648438	-171.9855499267578	1307.649780273438	-1246.726196289063	-146.4928131103516	1143.105102539063	-1341.025634765625	-97.76021575927737	1157.567626953125	-1340.944091796875	-93.51847076416017	1098.426025390625	-1351.54931640625	-27.31209945678712	1067.826416015625	-1358.080932617188	-49.58864593505861	1025.124145507813	-1279.465698242188	167.0890197753907	1141.371948242188	-1206.029541015625	189.3080596923828	1068.915649414063	-1200.9580078125	260.2797241210938	1132.793701171875	-1200.219604492188	-110.0766143798828	1320.915405273438	-939.9371337890627	-38.14921569824219	1170.619750976563	-837.745056152344	1.989181160926819	1180.854736328125	-863.8317871093752	14.42696285247803	1124.853759765625	-844.9500732421877	81.20425415039064	1094.769653320313	-866.8765258789065	34.93886184692384	1035.13671875	-914.0983886718752	241.0009765625001	1080.265258789063	-1074.591918945313	231.2943878173829	1161.369018554688	-1118.797119140625	-291.1241455078126	844.7373046875002	-1098.484130859375	-279.1137695312501	857.3786621093752	-872.690856933594	-433.7191772460939	983.5780029296877	-989.085632324219	-452.2132873535157	955.6481933593752	-1015.589111328125	-446.8170471191407	956.7918090820315	-956.8150634765627	-333.8789062500001	725.1441040039064	-1179.160278320313	-261.9526062011719	680.0547485351564	-1182.20068359375	-223.2712707519532	707.1310424804689	-1168.916015625	-256.1737060546876	619.9425048828126	-1184.117797851563	-187.4941711425782	470.361053466797	-1153.330078125	-149.2524871826172	476.5587768554689	-1032.698486328125	-202.1838836669922	309.1029663085938	-1038.276977539063	-224.3848724365235	261.1473388671876	-1105.632446289063	-213.6193542480469	256.4587097167969	-1060.86572265625	-259.3263854980469	197.5702209472657	-1022.480407714844	-344.6633605957032	123.5083847045899	-1061.60986328125	-319.4037780761719	142.1429138183594	-974.615905761719	-210.3535308837891	62.83526992797853	-990.685729980469	-208.4949951171876	60.76616287231447	-1036.20263671875	-258.7192687988282	50.2584800720215	-1079.888061523438	-367.3202514648438	698.6744384765626	-772.202575683594	-325.8419494628907	646.3381347656251	-766.2473144531251	-296.1822814941407	646.9807128906251	-778.3482666015627	-349.2288208007813	565.6352539062501	-759.5640258789064	-344.1254882812501	433.5355224609376	-772.6079711914065	-342.7183532714844	403.0741577148439	-902.0589599609377	-444.1929931640626	363.2905883789063	-779.098327636719	-530.9581298828126	423.9315185546876	-746.4990844726564	-525.9619750976564	377.3353881835938	-752.4063110351564	-574.3827514648439	357.2062377929688	-781.8614501953127	-729.4757080078126	411.2764892578126	-753.9133300781251	-750.7654418945314	460.0103759765626	-817.3164672851565	-803.3422851562502	256.8920593261719	-803.7593383789065	-801.905700683594	257.2433471679688	-758.2406616210939	-824.8129882812502	317.8230590820313	-716.3250732421876	-715.2175903320314	369.2867126464844	-835.2219238281252	nan	nan	nan	
476	2.375	13.11742591857911	1535.146850585938	-1118.797607421875	-166.8883361816407	1527.839599609375	-1145.863403320313	-144.2895660400391	1529.160888671875	-998.8598632812502	-225.288314819336	1376.642944335938	-1066.651489257813	-370.8199462890626	1110.297729492188	-1015.856750488281	-105.4284210205078	1268.755493164063	-1095.344360351563	-171.5008392333985	1305.998901367188	-1246.6669921875	-146.2156524658203	1141.323486328125	-1341.039916992188	-96.92308044433597	1155.663330078125	-1340.938110351563	-93.2409133911133	1096.555908203125	-1351.633911132813	-27.0445957183838	1065.941650390625	-1358.076782226563	-49.07621002197267	1023.496704101563	-1279.557006835938	167.5638427734375	1139.424560546875	-1206.249145507813	189.5009155273438	1066.776611328125	-1201.096313476563	261.2915039062501	1130.608764648438	-1200.750122070313	-109.0336990356446	1319.387451171875	-939.7747192382815	-37.46762084960938	1169.156860351563	-837.9506835937502	2.895581483840943	1179.792724609375	-863.4265136718752	14.88327503204346	1123.221557617188	-845.0882568359377	81.61025238037111	1093.219116210938	-867.0139770507815	35.33027648925782	1033.516723632813	-914.1335449218752	241.6164245605469	1078.418212890625	-1074.978881835938	231.9806060791016	1159.316284179688	-1119.283203125	-291.2934570312501	843.6538696289065	-1098.461547851563	-279.4787597656251	856.2601318359377	-872.2859497070315	-433.7839965820314	982.6868896484377	-988.9643554687502	-452.5989685058595	954.687683105469	-1015.526489257813	-446.8901977539064	956.0205688476565	-956.6275634765627	-334.1579284667969	724.3853759765626	-1179.063110351563	-262.5769348144532	679.7063598632814	-1182.079467773438	-223.2755584716797	706.7849731445314	-1168.829345703125	-256.0424499511719	619.5392456054689	-1184.044311523438	-187.0120086669922	470.0398559570314	-1153.25	-148.9097595214844	476.301727294922	-1032.709838867188	-201.8735046386719	308.9356079101563	-1038.076293945313	-223.8966369628907	260.9284057617188	-1105.653930664063	-213.4313201904297	256.3855590820313	-1060.732299804688	-259.2133178710938	197.5503082275391	-1022.379272460938	-344.6532897949219	123.4999923706055	-1061.497436523438	-319.4526672363282	142.11962890625	-974.513854980469	-210.2853546142579	62.77790451049806	-990.7055664062502	-208.4367218017579	60.82839965820314	-1036.119506835938	-258.6991882324219	50.23823928833009	-1079.79638671875	-368.0643920898438	697.4577636718751	-772.0003051757815	-326.6569824218751	645.1760253906251	-766.5435791015626	-297.1111450195313	645.5609741210939	-777.424743652344	-349.6943054199219	564.1574096679689	-759.4162597656251	-344.8862304687501	432.4348144531251	-772.526062011719	-343.3883056640626	402.6819152832032	-901.7708740234377	-444.6203002929689	362.1334533691407	-778.6463012695315	-531.8530883789064	423.0054626464845	-746.5062255859376	-526.7937011718751	376.5428771972657	-752.3217773437501	-574.9480590820314	356.5687866210938	-782.2850341796877	-730.1024780273439	410.7640380859376	-753.7788696289064	-751.2673950195314	459.6435546875001	-817.4273681640627	-804.2252197265627	256.6786804199219	-805.1093750000002	-802.7239990234377	256.3712158203126	-758.4506835937501	-825.6289062500002	317.6541748046876	-716.3766479492189	-715.7938232421876	369.0086669921876	-835.4736938476565	nan	nan	nan	
